<?xml version="1.0" encoding="UTF-8" standalone="no"?>
<!-- Created with Inkscape (http://www.inkscape.org/) -->

<svg
   width="74.741478mm"
   height="26.458334mm"
   viewBox="0 0 74.741478 26.458334"
   version="1.1"
   id="svg1"
   xml:space="preserve"
   xmlns="http://www.w3.org/2000/svg"
   xmlns:svg="http://www.w3.org/2000/svg"><defs
     id="defs1"><clipPath
       id="clip0_3195_13743"><path
         fill="#ffffff"
         d="M 0,0 H 229.545 V 50 H 0 Z"
         id="path2-9" /></clipPath><clipPath
       id="clipPath14264"
       clipPathUnits="userSpaceOnUse"><path
         id="path14262"
         d="M 392.16,14.04 H 606 V 117 H 392.16 Z" /></clipPath><linearGradient
       id="linearGradient14254"
       spreadMethod="pad"
       gradientTransform="matrix(26.919103,0,0,26.919103,-148.0266,-38.708835)"
       gradientUnits="userSpaceOnUse"
       y2="0"
       x2="1"
       y1="0"
       x1="0"><stop
         id="stop14250"
         offset="0"
         style="stop-opacity:1;stop-color:#fdd804" /><stop
         id="stop14252"
         offset="1"
         style="stop-opacity:1;stop-color:#ed192e" /></linearGradient><clipPath
       id="clipPath14204"
       clipPathUnits="userSpaceOnUse"><path
         id="path14202"
         d="M 392.16,14.04 H 606 V 117 H 392.16 Z" /></clipPath><linearGradient
       id="linearGradient14254-7"
       spreadMethod="pad"
       gradientTransform="matrix(26.919103,0,0,26.919103,-148.0266,-38.708835)"
       gradientUnits="userSpaceOnUse"
       y2="0"
       x2="1"
       y1="0"
       x1="0"><stop
         id="stop14250-8"
         offset="0"
         style="stop-opacity:1;stop-color:#fdd804" /><stop
         id="stop14252-4"
         offset="1"
         style="stop-opacity:1;stop-color:#ed192e" /></linearGradient><linearGradient
       id="linearGradient14254-7-0"
       spreadMethod="pad"
       gradientTransform="matrix(26.919103,0,0,26.919103,-148.0266,-38.708835)"
       gradientUnits="userSpaceOnUse"
       y2="0"
       x2="1"
       y1="0"
       x1="0"><stop
         id="stop14250-8-4"
         offset="0"
         style="stop-opacity:1;stop-color:#fdd804" /><stop
         id="stop14252-4-6"
         offset="1"
         style="stop-opacity:1;stop-color:#ed192e" /></linearGradient><linearGradient
       id="linearGradient14254-7-0-9"
       spreadMethod="pad"
       gradientTransform="matrix(26.919103,0,0,26.919103,-148.0266,-38.708835)"
       gradientUnits="userSpaceOnUse"
       y2="0"
       x2="1"
       y1="0"
       x1="0"><stop
         id="stop14250-8-4-2"
         offset="0"
         style="stop-opacity:1;stop-color:#fdd804" /><stop
         id="stop14252-4-6-4"
         offset="1"
         style="stop-opacity:1;stop-color:#ed192e" /></linearGradient><linearGradient
       id="linearGradient14254-7-0-9-4"
       spreadMethod="pad"
       gradientTransform="matrix(26.919103,0,0,26.919103,-148.0266,-38.708835)"
       gradientUnits="userSpaceOnUse"
       y2="0"
       x2="1"
       y1="0"
       x1="0"><stop
         id="stop14250-8-4-2-1"
         offset="0"
         style="stop-opacity:1;stop-color:#fdd804" /><stop
         id="stop14252-4-6-4-6"
         offset="1"
         style="stop-opacity:1;stop-color:#ed192e" /></linearGradient><linearGradient
       id="linearGradient14254-7-0-9-4-7"
       spreadMethod="pad"
       gradientTransform="matrix(26.919103,0,0,26.919103,-148.0266,-38.708835)"
       gradientUnits="userSpaceOnUse"
       y2="0"
       x2="1"
       y1="0"
       x1="0"><stop
         id="stop14250-8-4-2-1-1"
         offset="0"
         style="stop-opacity:1;stop-color:#fdd804" /><stop
         id="stop14252-4-6-4-6-9"
         offset="1"
         style="stop-opacity:1;stop-color:#ed192e" /></linearGradient><linearGradient
       id="linearGradient14254-7-0-9-4-7-5"
       spreadMethod="pad"
       gradientTransform="matrix(26.919103,0,0,26.919103,-148.0266,-38.708835)"
       gradientUnits="userSpaceOnUse"
       y2="0"
       x2="1"
       y1="0"
       x1="0"><stop
         id="stop14250-8-4-2-1-1-6"
         offset="0"
         style="stop-opacity:1;stop-color:#fdd804" /><stop
         id="stop14252-4-6-4-6-9-3"
         offset="1"
         style="stop-opacity:1;stop-color:#ed192e" /></linearGradient><linearGradient
       id="linearGradient14254-7-0-9-4-7-5-8"
       spreadMethod="pad"
       gradientTransform="matrix(26.919103,0,0,26.919103,-148.0266,-38.708835)"
       gradientUnits="userSpaceOnUse"
       y2="0"
       x2="1"
       y1="0"
       x1="0"><stop
         id="stop14250-8-4-2-1-1-6-9"
         offset="0"
         style="stop-opacity:1;stop-color:#fdd804" /><stop
         id="stop14252-4-6-4-6-9-3-3"
         offset="1"
         style="stop-opacity:1;stop-color:#ed192e" /></linearGradient><linearGradient
       id="linearGradient14254-7-0-9-4-7-5-8-2"
       spreadMethod="pad"
       gradientTransform="matrix(26.919103,0,0,26.919103,-148.0266,-38.708835)"
       gradientUnits="userSpaceOnUse"
       y2="0"
       x2="1"
       y1="0"
       x1="0"><stop
         id="stop14250-8-4-2-1-1-6-9-7"
         offset="0"
         style="stop-opacity:1;stop-color:#fdd804" /><stop
         id="stop14252-4-6-4-6-9-3-3-3"
         offset="1"
         style="stop-opacity:1;stop-color:#ed192e" /></linearGradient><linearGradient
       id="linearGradient14254-7-0-9-4-7-5-8-2-6"
       spreadMethod="pad"
       gradientTransform="matrix(26.919103,0,0,26.919103,-148.0266,-38.708835)"
       gradientUnits="userSpaceOnUse"
       y2="0"
       x2="1"
       y1="0"
       x1="0"><stop
         id="stop14250-8-4-2-1-1-6-9-7-1"
         offset="0"
         style="stop-opacity:1;stop-color:#fdd804" /><stop
         id="stop14252-4-6-4-6-9-3-3-3-4"
         offset="1"
         style="stop-opacity:1;stop-color:#ed192e" /></linearGradient></defs><g
     id="layer1"
     transform="translate(826.94773,-552.03006)"><g
       id="g21"
       transform="matrix(0.19692121,0,0,0.19692121,-849.43613,537.94429)"
       style="fill:#99c5ff;fill-opacity:1"><polygon
         class="st0"
         points="118.26,186.77 471.94,186.76 467.86,205.89 114.2,205.89 "
         id="polygon1"
         style="fill:#99c5ff;fill-opacity:1" /><path
         d="m 383.07,153.89 c -3.16,-3.4 -1.27,-10.17 0.35,-17.81 l 5.52,-25.95 h 22.69 l 4.11,-19.32 h -22.71 l 4.03,-19.28 h -21.39 l -14.02,66.32 c -2.11,9.91 -2.9,17.66 1.39,26.01 4,7.76 17.66,15.17 34.95,10.49 l 3.82,-17.93 c -11.72,1.45 -16.43,-0.07 -18.74,-2.53 z"
         id="path1-6"
         style="fill:#99c5ff;fill-opacity:1" /><polygon
         points="154.16,119.43 164.34,71.53 142.75,71.53 120.92,174.35 142.49,174.35 150.03,138.72 187.59,138.72 180.03,174.35 201.43,174.35 223.28,71.53 201.91,71.53 191.7,119.43 "
         id="polygon2"
         style="fill:#99c5ff;fill-opacity:1" /><path
         d="m 325.17,98.07 c -7.49,6.25 -11.74,14.44 -14.5,27.36 l -10.39,48.91 h 21.41 l 8.63,-40.56 c 2.04,-9.49 3.6,-15.42 7.16,-19.07 4.9,-5.01 12.01,-5.29 20.54,-4.58 l 4.12,-19.32 c -15.05,-3.82 -28.19,-0.07 -36.97,7.26 z"
         id="path2-2"
         style="fill:#99c5ff;fill-opacity:1" /><polygon
         points="421.36,110.13 460.13,110.13 411.64,155.77 407.7,174.35 474.52,174.35 478.64,155.04 439.65,155.04 488.38,109.19 492.28,90.81 425.45,90.81 "
         id="polygon3"
         style="fill:#99c5ff;fill-opacity:1" /><path
         d="m 266.74,89.28 c -7.23,0 -17.12,2.24 -26.84,9.87 -21.91,17.19 -32.79,76.72 14.26,76.72 12.2,0 25.77,-3.85 35.18,-10.96 l -8.51,-14.38 c -7.12,5.48 -42.99,17.39 -39.21,-11.68 h 56.07 c 0.02,-0.06 7.15,-23.3 -3.13,-37.36 -8.75,-12 -24.88,-12.21 -27.82,-12.21 z m 13.92,31.87 h -34.32 c 1.21,-4.62 8.5,-15.99 22.03,-14.75 14.56,1.35 12.29,14.75 12.29,14.75 z"
         id="path3-7"
         style="fill:#99c5ff;fill-opacity:1" /><g
         id="Registered_Trademark_2_"
         style="fill:#99c5ff;fill-opacity:1">
	<path
   class="st1"
   d="m 488.99,163.62 c -0.01,0 -0.02,0 -0.06,0 -3.33,0.02 -6.52,2.71 -7.22,5.97 -0.09,0.42 -0.13,0.84 -0.13,1.25 v 0.01 c 0.01,2.64 1.91,4.65 4.8,4.66 0.01,0 0.02,-0.01 0.02,-0.01 3.33,-0.02 6.51,-2.73 7.22,-5.98 0.09,-0.42 0.13,-0.84 0.13,-1.23 0.02,-2.65 -1.9,-4.66 -4.76,-4.67 z m 3.82,5.75 c -0.59,2.84 -3.54,5.34 -6.41,5.32 h -0.01 c -2.51,-0.05 -3.94,-1.6 -3.99,-3.85 0,-0.35 0.04,-0.72 0.12,-1.09 0.57,-2.83 3.5,-5.31 6.37,-5.32 2.56,0.05 3.99,1.59 4.04,3.86 0.01,0.33 -0.04,0.7 -0.12,1.08 z"
   id="path4-0"
   style="fill:#99c5ff;fill-opacity:1" />
	<path
   class="st1"
   d="m 488.51,166.72 h -2.54 l -1.21,5.69 h 1.26 l 0.39,-1.84 h 1 l 0.82,1.84 h 1.48 l -0.97,-2.04 c 0.79,-0.26 1.41,-0.85 1.61,-1.78 0.24,-1.18 -0.48,-1.87 -1.84,-1.87 z m 0.54,1.95 c -0.11,0.49 -0.53,0.83 -1.16,0.83 h -1.25 l 0.35,-1.67 h 1.22 c 0.64,0 0.96,0.28 0.84,0.84 z"
   id="path5-3"
   style="fill:#99c5ff;fill-opacity:1" />
</g></g></g><style
     type="text/css"
     id="style1">
	.st0{fill:#FFD100;}
	.st1{fill:#9D9D9C;}
</style><style
     type="text/css"
     id="style1-0">
	.st0{fill:#0072BE;}
</style></svg>
